<?xml version="1.0"?>
<svg xmlns="http://www.w3.org/2000/svg" id="Layer_1" data-name="Layer 1" viewBox="0 0 512 512" width="512" height="512"><title>Bill Notification</title><path d="M479.5,61.53V166.78a29.106,29.106,0,0,1-29.11,29.11H368.96l-54.95,38.16V195.89h-45.4a29.106,29.106,0,0,1-29.11-29.11V61.53a29.108,29.108,0,0,1,29.11-29.12H450.39A29.108,29.108,0,0,1,479.5,61.53Z" style="fill:#6fe3ff"/><path d="M92.5,347.92l90,55,90-55,60-36.67v135a33.336,33.336,0,0,1-33.33,33.34H65.83A33.336,33.336,0,0,1,32.5,446.25v-135Z" style="fill:#e48e66"/><path d="M332.5,300.33v10.92l-60,36.67v-92.4l3.81,1.77,49.01,30.24A15.014,15.014,0,0,1,332.5,300.33Z" style="fill:#cc7350"/><path d="M272.5,255.52v92.4l-90,55-90-55V199.03a23.789,23.789,0,0,1,23.79-23.79h90.72l1.2.13v40.37A23.789,23.789,0,0,0,232,239.53h33.89l6.61,7.36v8.63Z" style="fill:#f8ec7d"/><path d="M208.35,175.38l57.54,64.15H232a23.789,23.789,0,0,1-23.79-23.79V175.37Z" style="fill:#cc7350"/><path d="M92.5,255.52v92.4l-60-36.67V300.33a15.014,15.014,0,0,1,7.18-12.8Z" style="fill:#cc7350"/><path d="M212.435,268h.066a5.857,5.857,0,1,0,.064-11.712L170.125,256H153.048a5.828,5.828,0,0,0-6,5.731,5.915,5.915,0,0,0,5.939,5.961l17.011.129h0V267.8a19.749,19.749,0,0,1,13.733,5.847,19.173,19.173,0,0,1,4.678,7.792L152.833,281h-.064a6.038,6.038,0,0,0-.062,12.075l35.556.389a19.768,19.768,0,0,1-18.473,13.52L152.567,307H152.5a5.786,5.786,0,0,0-4.167,10.016l42.089,40.591a6.016,6.016,0,0,0,8.335-8.677l-31.231-30.159,2.264.021a31.52,31.52,0,0,0,30.852-25.048l11.524.256h.065a6.1,6.1,0,0,0,.063-12.2l-11.508-.156a31.638,31.638,0,0,0-6.048-13.7Z" style="fill:#e48e66"/><path d="M346.49,84.62H282.44a6,6,0,0,1,0-12h64.05a6,6,0,0,1,0,12Z" style="fill:#2561a1"/><path d="M436.56,84.62H381.43a6,6,0,0,1,0-12h55.13a6,6,0,1,1,0,12Z" style="fill:#2561a1"/><path d="M385.61,121.02H282.44a6,6,0,0,1,0-12H385.61a6,6,0,0,1,0,12Z" style="fill:#2561a1"/><path d="M436.56,121.02H420.54a6,6,0,0,1,0-12h16.02a6,6,0,1,1,0,12Z" style="fill:#2561a1"/><path d="M352.32,157.41H282.44a6,6,0,0,1,0-12h69.88a6,6,0,0,1,0,12Z" style="fill:#2561a1"/><path d="M436.56,157.41H387.25a6,6,0,0,1,0-12h49.31a6,6,0,0,1,0,12Z" style="fill:#2561a1"/></svg>
