<svg height="511pt" viewBox="0 1 511 511.99999" width="511pt" xmlns="http://www.w3.org/2000/svg"><path d="m66.253906 118.878906c-24.441406 1.367188-43.832031 21.613282-43.832031 46.390625v262.472657h459.230469v-262.472657c0-25.664062-20.800782-46.464843-46.46875-46.464843h-4.027344" fill="#6198ce"/><path d="m481.652344 209.742188v218h-144.03125c103.816406 0 144.03125-163.726563 144.03125-218zm0 0" fill="#4884b5"/><path d="m481.652344 435.570312h-459.230469c-4.324219 0-7.828125-3.503906-7.828125-7.828124v-262.472657c0-28.789062 22.5-52.601562 51.222656-54.207031.148438-.007812.292969-.011719.4375-.011719l368.929688-.074219c29.9375 0 54.296875 24.355469 54.296875 54.292969v262.472657c0 4.324218-3.507813 7.828124-7.828125 7.828124zm-451.40625-15.65625h443.578125v-254.644531c0-21.304687-17.332031-38.636719-38.640625-38.636719h-4.027344l-364.671875.070313c-20.335937 1.25-36.238281 18.148437-36.238281 38.566406zm0 0" fill="#ccc"/><path d="m511.917969 427.742188v30.632812c0 9.570312-2.507813 18.546875-6.898438 26.320312-9.207031 16.304688-26.691406 27.304688-46.730469 27.304688h-404.164062c-29.621094 0-53.625-24.003906-53.625-53.625v-30.632812zm0 0" fill="#ccc"/><path d="m511.917969 427.742188v30.632812c0 9.570312-2.507813 18.546875-6.898438 26.320312-4.886719 1.472657-10.0625 2.253907-15.417969 2.253907h-404.164062c-29.621094 0-53.625-24.003907-53.625-53.625v-5.582031zm0 0" fill="#e6e6e6"/><path d="m274.359375 469.871094h-63.4375c-14.570313 0-26.378906-11.8125-26.378906-26.382813v-15.746093h116.195312v15.746093c0 14.570313-11.808593 26.382813-26.378906 26.382813zm0 0" fill="#ccc"/><path d="m343.109375 129.648438v108.128906l-199.566406-.8125-87.148438-.355469v-140.464844c0-22.855469 22.113281-39.167969 43.949219-32.4375 12.292969-39.074219 48.324219-63.707031 86.792969-63.707031 10.554687 0 21.273437 1.847656 31.742187 5.761719.457032.167969.917969.34375 1.375.519531l52.699219 20.605469c42.308594 16.542969 70.15625 57.328125 70.15625 102.761719zm0 0" fill="#545d68"/><path d="m143.136719 78.957031c0 36.527344 29.648437 77.148438 29.648437 77.148438l-29.242187 80.859375-87.148438-.355469v-140.464844c0-22.855469 22.113281-39.167969 43.949219-32.4375 12.292969-39.074219 48.324219-63.707031 86.792969-63.707031 10.554687 0 21.273437 1.847656 31.742187 5.761719-40.039062-14.339844-75.742187 37.082031-75.742187 73.195312zm0 0" fill="#3b454f"/><path d="m163.800781 371.640625h70v48.273437h-70zm0 0" fill="#c28267"/><path d="m318.945312 231.757812c1.542969-.238281 3.160157-.355468 4.839844-.355468 19.207032 0 31.644532 15.5625 31.644532 34.765625 0 19.207031-17.898438 45.445312-37.101563 45.445312-4.320313 0-7.910156-1.328125-10.886719-3.601562h-217.285156c-2.972656 2.273437-6.566406 3.601562-10.886719 3.601562-19.203125 0-37.101562-26.238281-37.101562-45.445312 0-19.203125 12.441406-34.765625 31.644531-34.765625 1.679688 0 3.296875.117187 4.84375.355468" fill="#ab633f"/><path d="m315.457031 293.339844c-.589843 0-1.191406-.066406-1.792969-.207032-4.203124-.988281-6.8125-5.179687-5.839843-9.382812.707031-3.027344 7.433593-29.5625 27.003906-29.5625 4.324219 0 7.828125 3.503906 7.828125 7.828125s-3.503906 7.828125-7.828125 7.828125c-5.378906 0-10.3125 11.375-11.757813 17.464844-.851562 3.601562-4.066406 6.03125-7.613281 6.03125zm0 0" fill="#96502d"/><path d="m107.757812 110.929688c68.777344 74.894531 211.191407 78.027343 211.191407 78.027343v67.726563c0 33.179687-13.453125 63.207031-35.195313 84.945312-21.742187 21.75-51.777344 35.195313-84.957031 35.195313-66.347656 0-120.140625-53.792969-120.140625-120.140625v-67.363282c0-29.964843 10.957031-57.351562 29.097656-78.390624zm0 0" fill="#c28267"/><path d="m233.800781 371.640625v18.789063c-6.273437 1.910156-18.011719 3.285156-27.394531 4.113281-7.851562.6875-13.863281 7.253906-13.863281 15.132812v10.238281h-28.742188v-48.273437zm0 0" fill="#ab633f"/><path d="m119.179688 256.683594v-67.363282c0-20.25 5.011718-39.320312 13.855468-56.050781-9.132812-6.628906-17.660156-14.042969-25.277344-22.339843-.003906 0-.003906 0-.003906 0-18.140625 21.039062-29.097656 48.425781-29.097656 78.390624v67.363282c0 66.347656 53.792969 120.140625 120.140625 120.140625 6.90625 0 13.675781-.589844 20.265625-1.710938-56.703125-9.632812-99.882812-58.988281-99.882812-118.429687zm0 0" fill="#ab633f"/><path d="m198.800781 288.570312c-6.539062 0-13.074219-2.488281-18.046875-7.460937-3.058594-3.058594-3.058594-8.015625 0-11.070313 3.054688-3.058593 8.011719-3.058593 11.066406 0 3.851563 3.847657 10.109376 3.847657 13.953126 0 3.058593-3.058593 8.015624-3.058593 11.070312 0 3.058594 3.054688 3.058594 8.011719 0 11.070313-4.972656 4.972656-11.507812 7.460937-18.042969 7.460937zm0 0" fill="#96502d"/><path d="m82.140625 293.351562c-3.554687 0-6.769531-2.4375-7.613281-6.042968-1.445313-6.09375-6.375-17.464844-11.757813-17.464844-4.324219 0-7.828125-3.503906-7.828125-7.828125 0-4.320313 3.503906-7.828125 7.828125-7.828125 19.570313 0 26.300781 26.539062 27 29.5625.980469 4.210938-1.640625 8.417969-5.851562 9.398438-.59375.136718-1.191407.203124-1.777344.203124zm0 0" fill="#96502d"/><path d="m229.070312 318.488281h37.570313c0-16.714843-13.550781-30.265625-30.265625-30.265625h-37.574219c0 16.714844 13.550781 30.265625 30.269531 30.265625zm0 0" fill="#545d68"/><path d="m168.535156 318.488281h-37.574218c0-16.714843 13.550781-30.265625 30.265624-30.265625h37.574219c0 16.714844-13.550781 30.265625-30.265625 30.265625zm0 0" fill="#545d68"/><path d="m215.535156 228.132812c0 22.785157 18.472656 41.246094 41.257813 41.246094 17.792969 0 32.960937-11.257812 38.75-27.050781 1.621093-4.425781 2.507812-9.207031 2.507812-14.195313 0-22.792968-18.476562-26.894531-41.257812-26.894531-5.941407 0-11.597657.28125-16.699219 1.105469-14.46875 2.304688-24.558594 8.945312-24.558594 25.789062zm0 0" fill="#72cec0"/><path d="m99.546875 228.132812c0 22.785157 18.460937 41.246094 41.246094 41.246094 17.804687 0 32.972656-11.257812 38.742187-27.050781 1.628906-4.425781 2.515625-9.207031 2.515625-14.195313 0-22.792968-18.464843-26.894531-41.257812-26.894531-5.9375 0-11.585938.28125-16.6875 1.105469-14.464844 2.304688-24.558594 8.945312-24.558594 25.789062zm0 0" fill="#72cec0"/><path d="m240.070312 203.585938c0 22.792968 18.476563 41.257812 41.257813 41.257812 5 0 9.792969-.886719 14.214844-2.515625 1.621093-4.425781 2.507812-9.207031 2.507812-14.195313 0-22.792968-18.476562-26.894531-41.257812-26.894531-5.941407 0-11.597657.28125-16.699219 1.105469-.011719.40625-.023438.824219-.023438 1.242188zm0 0" fill="#c9fff7"/><path d="m124.082031 203.585938c0 22.792968 18.464844 41.257812 41.257813 41.257812 4.988281 0 9.769531-.886719 14.195312-2.515625 1.628906-4.425781 2.515625-9.207031 2.515625-14.195313 0-22.792968-18.464843-26.894531-41.257812-26.894531-5.9375 0-11.585938.28125-16.6875 1.105469-.011719.40625-.023438.824219-.023438 1.242188zm0 0" fill="#c9fff7"/><path d="m326.539062 221.011719c-1.050781-4.191407-5.304687-6.742188-9.492187-5.695313l-12.28125 3.066406c-6.09375-24.953124-35.941406-24.976562-47.96875-24.976562-11.667969 0-40.128906.011719-47.375 22.824219-6.90625-2.191407-14.335937-2.191407-21.242187 0-7.242188-22.8125-35.703126-22.824219-47.375-22.824219-12.023438 0-41.871094.019531-47.96875 24.976562l-12.285157-3.066406c-4.191406-1.046875-8.441406 1.503906-9.488281 5.695313-1.050781 4.195312 1.5 8.445312 5.695312 9.492187l15.371094 3.839844c3.066406 24.140625 23.71875 42.867188 48.675782 42.867188 25.597656 0 46.664062-19.691407 48.878906-44.71875 5.695312-3.023438 12.539062-3.023438 18.234375 0 2.214843 25.027343 23.285156 44.71875 48.878906 44.71875 24.957031 0 45.609375-18.726563 48.675781-42.867188l15.367188-3.839844c4.195312-1.046875 6.746094-5.296875 5.699218-9.492187zm-185.734374 40.546875c-18.429688 0-33.425782-14.996094-33.425782-33.429688 0-12.074218 5.46875-19.066406 33.425782-19.066406 27.960937 0 33.429687 6.988281 33.429687 19.066406 0 18.433594-14.996094 33.429688-33.429687 33.429688zm115.992187 0c-18.433594 0-33.429687-14.996094-33.429687-33.429688 0-12.074218 5.472656-19.066406 33.429687-19.066406s33.429687 6.988281 33.429687 19.066406c0 18.433594-14.996093 33.429688-33.429687 33.429688zm0 0" fill="#3b454f"/><path d="m486.523438 11.4375h-174.652344c-14.023438 0-25.394532 11.371094-25.394532 25.394531v118.296875c0 14.023438 11.371094 25.390625 25.394532 25.390625h66.453125v49.054688l45.921875-49.054688h62.277344c14.023437 0 25.390624-11.367187 25.390624-25.390625v-118.296875c0-14.023437-11.367187-25.394531-25.390624-25.394531zm0 0" fill="#f7d360"/><g fill="#e6e6e6"><path d="m477.472656 63.625h-156.554687c-4.324219 0-7.828125-3.507812-7.828125-7.828125 0-4.324219 3.503906-7.828125 7.828125-7.828125h156.554687c4.324219 0 7.828125 3.503906 7.828125 7.828125 0 4.320313-3.503906 7.828125-7.828125 7.828125zm0 0"/><path d="m477.472656 103.285156h-156.554687c-4.324219 0-7.828125-3.503906-7.828125-7.828125s3.503906-7.828125 7.828125-7.828125h156.554687c4.324219 0 7.828125 3.503906 7.828125 7.828125s-3.503906 7.828125-7.828125 7.828125zm0 0"/><path d="m477.472656 142.945312h-156.554687c-4.324219 0-7.828125-3.503906-7.828125-7.828124 0-4.324219 3.503906-7.828126 7.828125-7.828126h156.554687c4.324219 0 7.828125 3.503907 7.828125 7.828126 0 4.324218-3.503906 7.828124-7.828125 7.828124zm0 0"/></g></svg>