<?xml version="1.0" encoding="utf-8"?>
<!-- Generator: Adobe Illustrator 23.0.6, SVG Export Plug-In . SVG Version: 6.00 Build 0)  -->
<svg version="1.1" id="Layer_1" xmlns="http://www.w3.org/2000/svg" xmlns:xlink="http://www.w3.org/1999/xlink" x="0px" y="0px"
	 viewBox="0 0 130 100" style="enable-background:new 0 0 130 100;" xml:space="preserve">
<style type="text/css">
	.st0{fill:#252F3E;}
	.st1{fill:#FF9900;}
	.st2{fill-rule:evenodd;clip-rule:evenodd;fill:#0089D6;}
	.st3{fill:#0089D6;}
	.st4{fill:#EA4335;}
	.st5{fill:#4285F4;}
	.st6{fill:#34A853;}
	.st7{fill:#FBBC05;}
	.st8{fill:#5F6368;}
	.st9{fill:#373C41;}
	.st10{fill:#696566;}
</style>
<g>
	<g>
		<path id="path7291" class="st2" d="M69.6,16.7l-9.4,19l16.6,19.3l-30.8,3.5l47.9,0.5L69.6,16.7L69.6,16.7z"/>
		<path id="path7293" class="st2" d="M67.7,9.2L46,27.3L29.9,54.4l13.7-1.4L67.7,9.2z"/>
	</g>
	<path id="text7295" class="st3" d="M22.2,64.1L11.9,89.5h3.5l2.7-7.1h11.5l2.9,7.1h3.5L25.5,64.1H22.2L22.2,64.1z M23.8,67.1
		L23.8,67.1c0.2,0.8,0.4,1.3,0.5,1.7l4.2,10.8h-9.4l4.2-10.8C23.5,68.4,23.6,67.9,23.8,67.1L23.8,67.1z M103.9,70.9
		c-2.5,0-4.6,0.9-6.4,2.7c-1.7,1.8-2.5,4.1-2.5,6.9c0,3,0.8,5.3,2.3,7c1.6,1.6,3.7,2.5,6.4,2.5c2.8,0,5-0.6,6.7-1.7v-2.7
		c-1.8,1.3-3.8,2-6,2c-1.9,0-3.5-0.5-4.6-1.6c-1.1-1.1-1.7-2.7-1.7-4.7h13.6v-1.5c0-2.7-0.7-4.9-2.1-6.4
		C108.4,71.7,106.4,70.9,103.9,70.9L103.9,70.9z M90.1,71c-1.1,0-2.1,0.4-3,1.1c-0.9,0.7-1.6,1.7-2,3H85v-3.7h-3.1v18.2H85v-9.3
		c0-2,0.4-3.6,1.3-4.8c0.9-1.2,2-1.8,3.3-1.8c1,0,1.8,0.2,2.3,0.6v-3C91.5,71.1,90.9,71,90.1,71z M39,71.3v2.5h10.3L38,88.6v0.9
		h15.9V87H42.5l11.4-14.8v-0.8H39L39,71.3z M58.6,71.3v10.8c0,5.2,2.3,7.7,6.9,7.7c2.7,0,4.7-1.1,6-3.3h0.1v2.9h3.1V71.3h-3.1v10.5
		c0,1.7-0.5,3.1-1.5,4.1c-1,1-2.2,1.6-3.7,1.6c-3.1,0-4.7-1.9-4.7-5.7V71.3H58.6L58.6,71.3z M103.9,73.3c1.5,0,2.7,0.5,3.5,1.4
		c0.9,0.9,1.3,2.2,1.3,3.9H98.3c0.2-1.6,0.9-2.9,1.9-3.8C101.2,73.8,102.4,73.3,103.9,73.3z"/>
</g>
</svg>
