<?xml version="1.0" encoding="utf-8"?>
<!-- Generator: Adobe Illustrator 23.0.6, SVG Export Plug-In . SVG Version: 6.00 Build 0)  -->
<svg version="1.1" id="Layer_1" xmlns="http://www.w3.org/2000/svg" xmlns:xlink="http://www.w3.org/1999/xlink" x="0px" y="0px"
	 viewBox="0 0 130 100" style="enable-background:new 0 0 130 100;" xml:space="preserve">
<style type="text/css">
	.st0{fill:#252F3E;}
	.st1{fill:#FF9900;}
	.st2{fill-rule:evenodd;clip-rule:evenodd;fill:#0089D6;}
	.st3{fill:#0089D6;}
	.st4{fill:#EA4335;}
	.st5{fill:#4285F4;}
	.st6{fill:#34A853;}
	.st7{fill:#FBBC05;}
	.st8{fill:#5F6368;}
	.st9{fill:#373C41;}
	.st10{fill:#696566;}
</style>
<g>
	<path class="st0" d="M39.8,40.6c0,1.4,0.2,2.6,0.4,3.4c0.3,0.8,0.7,1.8,1.2,2.8c0.2,0.3,0.3,0.6,0.3,0.9c0,0.4-0.2,0.8-0.7,1.2
		l-2.4,1.6c-0.3,0.2-0.7,0.3-1,0.3c-0.4,0-0.8-0.2-1.2-0.5c-0.5-0.6-1-1.2-1.4-1.8c-0.4-0.7-0.8-1.4-1.2-2.3
		c-3,3.5-6.8,5.3-11.3,5.3c-3.2,0-5.8-0.9-7.7-2.8s-2.8-4.3-2.8-7.4c0-3.3,1.2-5.9,3.5-7.9c2.3-2,5.4-3,9.4-3c1.3,0,2.6,0.1,4.1,0.3
		c1.4,0.2,2.9,0.5,4.4,0.8v-2.8c0-2.9-0.6-5-1.8-6.1c-1.2-1.2-3.3-1.8-6.3-1.8c-1.3,0-2.7,0.2-4.1,0.5c-1.4,0.3-2.8,0.8-4.1,1.3
		c-0.6,0.3-1.1,0.4-1.3,0.5c-0.3,0.1-0.5,0.1-0.6,0.1c-0.5,0-0.8-0.4-0.8-1.2v-1.9c0-0.6,0.1-1.1,0.3-1.3c0.2-0.3,0.5-0.5,1.1-0.8
		c1.3-0.7,3-1.3,4.8-1.7c1.9-0.5,3.9-0.7,6-0.7c4.6,0,7.9,1,10.1,3.1c2.1,2.1,3.2,5.2,3.2,9.4L39.8,40.6L39.8,40.6z M24.2,46.4
		c1.3,0,2.6-0.2,4-0.7c1.4-0.5,2.6-1.3,3.6-2.5c0.6-0.7,1.1-1.5,1.3-2.5c0.2-0.9,0.4-2,0.4-3.3v-1.6c-1.1-0.3-2.3-0.5-3.5-0.7
		S27.6,35,26.4,35c-2.6,0-4.5,0.5-5.7,1.5c-1.3,1-1.9,2.5-1.9,4.4c0,1.8,0.5,3.1,1.4,4.1C21.1,45.9,22.5,46.4,24.2,46.4z M55.1,50.5
		c-0.7,0-1.2-0.1-1.5-0.4c-0.3-0.2-0.6-0.8-0.8-1.5l-9-29.7c-0.2-0.8-0.3-1.3-0.3-1.5c0-0.6,0.3-1,0.9-1h3.8c0.7,0,1.2,0.1,1.5,0.4
		c0.3,0.2,0.5,0.8,0.8,1.5l6.4,25.4l6-25.4c0.2-0.8,0.4-1.3,0.7-1.5c0.3-0.2,0.8-0.4,1.5-0.4h3.1c0.7,0,1.2,0.1,1.5,0.4
		c0.3,0.2,0.6,0.8,0.7,1.5l6.1,25.7l6.6-25.7c0.2-0.8,0.5-1.3,0.8-1.5c0.3-0.2,0.8-0.4,1.5-0.4h3.6c0.6,0,1,0.3,1,1
		c0,0.2,0,0.4-0.1,0.6c0,0.2-0.1,0.5-0.3,1l-9.2,29.7c-0.2,0.8-0.5,1.3-0.8,1.5s-0.8,0.4-1.5,0.4h-3.3c-0.7,0-1.2-0.1-1.5-0.4
		s-0.6-0.8-0.7-1.5l-5.9-24.8l-5.9,24.7c-0.2,0.8-0.4,1.3-0.7,1.5c-0.3,0.3-0.8,0.4-1.5,0.4H55.1z M104.4,51.6c-2,0-4-0.2-5.9-0.7
		c-1.9-0.5-3.4-1-4.4-1.5c-0.6-0.3-1-0.7-1.2-1.1c-0.2-0.3-0.2-0.7-0.2-1.1v-2c0-0.8,0.3-1.2,0.9-1.2c0.2,0,0.5,0,0.7,0.1
		c0.2,0.1,0.6,0.2,1,0.4c1.3,0.6,2.7,1,4.2,1.3c1.5,0.3,3,0.5,4.6,0.5c2.4,0,4.3-0.4,5.6-1.3c1.3-0.8,2-2.1,2-3.6c0-1.1-0.3-2-1-2.7
		c-0.7-0.7-2-1.4-3.9-2l-5.6-1.7c-2.8-0.9-4.9-2.2-6.1-3.9c-1.3-1.7-1.9-3.6-1.9-5.6c0-1.6,0.3-3,1-4.3c0.7-1.2,1.6-2.3,2.8-3.1
		c1.2-0.9,2.5-1.5,4-2c1.5-0.5,3.1-0.7,4.8-0.7c0.8,0,1.7,0,2.6,0.2c0.9,0.1,1.7,0.3,2.5,0.4c0.8,0.2,1.5,0.4,2.2,0.6
		s1.2,0.5,1.6,0.7c0.5,0.3,0.9,0.6,1.2,1c0.2,0.3,0.3,0.7,0.3,1.3v1.8c0,0.8-0.3,1.2-0.9,1.2c-0.3,0-0.8-0.2-1.5-0.5
		c-2.2-1-4.6-1.5-7.4-1.5c-2.2,0-3.9,0.3-5.1,1.1c-1.2,0.7-1.8,1.8-1.8,3.4c0,1.1,0.4,2,1.2,2.7c0.8,0.7,2.2,1.5,4.2,2.1l5.4,1.7
		c2.8,0.9,4.8,2.1,5.9,3.7c1.2,1.6,1.8,3.4,1.8,5.4c0,1.7-0.3,3.1-1,4.5c-0.7,1.3-1.6,2.5-2.8,3.4c-1.2,1-2.6,1.7-4.3,2.1
		C108.1,51.3,106.3,51.6,104.4,51.6z"/>
	<path class="st1" d="M111.6,70.2c-12.6,9.3-31,14.3-46.7,14.3c-22.1,0-42-8.2-57.1-21.8c-1.2-1.1-0.1-2.5,1.3-1.7
		c16.3,9.4,36.3,15.2,57.1,15.2c14,0,29.4-2.9,43.6-8.9C111.9,66.3,113.7,68.7,111.6,70.2z M116.9,64.2c-1.6-2.1-10.7-1-14.8-0.5
		c-1.2,0.2-1.4-0.9-0.3-1.7c7.2-5.1,19.1-3.6,20.5-1.9c1.4,1.7-0.4,13.6-7.1,19.3c-1,0.9-2,0.4-1.6-0.7
		C115.1,74.8,118.5,66.3,116.9,64.2z"/>
</g>
</svg>
