<?xml version="1.0" encoding="utf-8"?>
<!-- Generator: Adobe Illustrator 23.0.6, SVG Export Plug-In . SVG Version: 6.00 Build 0)  -->
<svg version="1.1" id="Layer_1" xmlns="http://www.w3.org/2000/svg" xmlns:xlink="http://www.w3.org/1999/xlink" x="0px" y="0px"
	 viewBox="0 0 130 100" style="enable-background:new 0 0 130 100;" xml:space="preserve">
<style type="text/css">
	.st0{fill:#252F3E;}
	.st1{fill:#FF9900;}
	.st2{fill-rule:evenodd;clip-rule:evenodd;fill:#0089D6;}
	.st3{fill:#0089D6;}
	.st4{fill:#EA4335;}
	.st5{fill:#4285F4;}
	.st6{fill:#34A853;}
	.st7{fill:#FBBC05;}
	.st8{fill:#5F6368;}
	.st9{fill:#373C41;}
	.st10{fill:#696566;}
</style>
<g>
	<path class="st9" d="M59.6,49.8L47,47.1c-1.2-0.3-2-1.3-2.1-2.5c0,0,0-13.6,0-13.6c0.1-1.2,0.9-2.2,2.1-2.5l12.6-2.8l1.3-5.3H46.3
		c-5.2,0-9.4,4.2-9.4,9.3v16.1c0,5.2,4.2,9.3,9.4,9.3H61L59.6,49.8z"/>
	<path class="st9" d="M70.4,49.8L83,47.1c1.2-0.3,2-1.3,2.1-2.5c0,0,0-13.6,0-13.6c-0.1-1.2-0.9-2.2-2.1-2.5l-12.6-2.7L69,20.4h14.7
		c5.2,0,9.4,4.2,9.4,9.3v16.1c0,5.2-4.2,9.3-9.4,9.3H69L70.4,49.8z"/>
	<rect x="59.6" y="37.1" class="st9" width="10.7" height="1.3"/>
	<path class="st9" d="M100.6,79.5H99c-2,0-3.6-1.6-3.6-3.6v-4.7c0-2,1.6-3.6,3.6-3.6h1.6c2,0,3.6,1.6,3.6,3.6v4.7
		C104.2,77.9,102.6,79.5,100.6,79.5 M99,69.7c-0.8,0-1.6,0.7-1.6,1.6v4.7c0,0.8,0.7,1.5,1.6,1.5h1.6c0.9,0,1.6-0.7,1.6-1.5v-4.7
		c0-0.8-0.7-1.6-1.6-1.6H99z"/>
	<rect x="20.6" y="63.6" class="st9" width="2.1" height="15.6"/>
	<rect x="25.1" y="67.9" class="st9" width="2.1" height="11.4"/>
	<path class="st9" d="M26.2,63.6c-0.8,0-1.4,0.6-1.4,1.4s0.6,1.4,1.4,1.4c0.8,0,1.4-0.6,1.4-1.4C27.6,64.3,26.9,63.6,26.2,63.6"/>
	<path class="st9" d="M13.1,63.6H11h-0.4C9.6,65.3,7.3,70,5,79.3h2.2c0.4-1.4,0.7-2.7,1.1-3.9h7.6c0.3,1.2,0.7,2.5,1.1,3.9h2.2
		c-2.3-9.3-4.6-14-5.6-15.6H13.1z M8.9,73.3c1.2-3.6,2.2-6.1,2.9-7.5h0.4c0.7,1.4,1.8,3.8,2.9,7.5H8.9z"/>
	<rect x="91.3" y="63.6" class="st9" width="2.1" height="15.7"/>
	<rect x="29.7" y="63.6" class="st9" width="2.1" height="15.6"/>
	<path class="st9" d="M34.4,79.5c-1,0-2.5-0.2-3.9-0.5l0.5-2c3.3,0.8,4.7,0.3,5.2,0c0.4-0.3,0.4-0.9,0.4-1.5V72h2.1v3.5
		c0,0.7,0,2.2-1.2,3.2C36.8,79.3,35.8,79.5,34.4,79.5"/>
	<path class="st9" d="M38.7,74.9h-2.1v-3.5c0-0.6,0-1.1-0.4-1.4c-0.3-0.3-1.4-0.8-4.9,0.1l-0.5-2c3.2-0.8,5.4-0.7,6.7,0.3
		c1.2,0.9,1.2,2.3,1.2,3L38.7,74.9L38.7,74.9z"/>
	<path class="st9" d="M88.8,76.8c-1.5,0.6-4.3,1-6.7,0.4c-1.3-0.3-1.4-1.4-1.4-1.6v-2.9v-2.4v-2.8c0-0.2,0.1-1.2,1.4-1.6
		c2.4-0.6,5.3-0.2,6.8,0.4l0.5-2c-1.3-0.5-3-0.8-4.7-0.8c-1.1,0-2.1,0.1-3,0.3c-2.4,0.6-3,2.6-3,3.6v2.8v1.2v1.2v2.9
		c0,1,0.6,3,3,3.6c0.9,0.2,2,0.3,3,0.3c1.7,0,3.4-0.3,4.7-0.8L88.8,76.8z"/>
	<rect x="112.5" y="67.9" class="st9" width="2.1" height="11.4"/>
	<path class="st9" d="M110.2,79.5c-1.3,0-2.3-0.3-3.1-0.9c-1.3-1-1.3-2.4-1.3-3.2v-7.7h2.1v7.7c0,0.6,0,1.2,0.4,1.5
		c0.4,0.3,1.6,0.8,4.8,0l0.5,2C112.4,79.4,111.2,79.5,110.2,79.5"/>
	<rect x="122.9" y="63.6" class="st9" width="2.1" height="15.6"/>
	<path class="st9" d="M120.7,79.5c-1.3,0-2.3-0.3-3.1-0.9c-1.3-1-1.3-2.4-1.2-3.2V72h2.1v3.5c0,0.6,0,1.2,0.4,1.5s1.6,0.8,4.8,0
		l0.5,2C122.8,79.4,121.7,79.5,120.7,79.5"/>
	<path class="st9" d="M118.4,75h-2.1v-3.5c0-0.7,0-2.1,1.2-3c1.3-1,3.4-1.1,6.7-0.3l-0.5,2c-3.4-0.8-4.6-0.3-4.9-0.1
		c-0.4,0.3-0.4,0.8-0.4,1.4V75z"/>
	<path class="st9" d="M48,68.3c-2.1-1.5-5.9-0.4-6.8-0.1l0.5,2c1.2-0.4,4-1,5.1-0.3c0.2,0.1,0.4,0.4,0.4,1v8.2h2.1V71
		C49.3,69.6,48.5,68.8,48,68.3"/>
	<path class="st9" d="M44.2,79.5c-2.1,0-3.5-1-3.9-2.7c-0.2-1-0.1-2,0.5-2.7c0.6-0.8,1.5-1.4,2.9-1.6c2.7-0.4,4.7,0.3,4.8,0.3
		l-0.7,2c0,0-1.7-0.6-3.8-0.2c-0.5,0.1-1.2,0.3-1.5,0.7c-0.2,0.3-0.2,0.8-0.1,1.1c0.1,0.3,0.2,1.1,1.9,1.1c1.1,0,2.9-0.2,3.5-0.4
		l0.7,2C47.5,79.3,45.4,79.5,44.2,79.5"/>
	<path class="st9" d="M70,68.3c-2.1-1.5-5.9-0.4-6.8-0.1l0.5,2c1.2-0.4,4-1,5.1-0.3c0.2,0.1,0.4,0.4,0.4,1v8.2h2.1V71
		C71.3,69.6,70.6,68.8,70,68.3"/>
	<path class="st9" d="M66.2,79.5c-2.1,0-3.5-1-3.9-2.7c-0.2-1-0.1-2,0.4-2.7c0.6-0.8,1.5-1.4,2.9-1.6c2.7-0.4,4.7,0.3,4.8,0.3
		l-0.7,2c0,0-1.7-0.6-3.8-0.2c-0.5,0.1-1.2,0.3-1.5,0.7c-0.2,0.3-0.2,0.8-0.1,1.1c0.1,0.3,0.2,1.1,1.9,1.1c1.1,0,2.9-0.2,3.5-0.4
		l0.7,2C69.5,79.3,67.5,79.5,66.2,79.5"/>
	<rect x="51.7" y="63.6" class="st9" width="2.1" height="15.6"/>
	<path class="st9" d="M56.5,79.5c-1,0-2.5-0.2-3.9-0.5l0.5-2c3.3,0.8,4.7,0.3,5.2,0c0.4-0.3,0.4-0.9,0.4-1.5V72h2.1v3.5
		c0,0.7,0,2.2-1.2,3.2C58.8,79.3,57.8,79.5,56.5,79.5"/>
	<path class="st9" d="M60.8,74.9h-2.1v-3.5c0-0.6,0-1.1-0.4-1.4c-0.3-0.3-1.4-0.8-4.9,0.1l-0.5-2c3.2-0.8,5.4-0.7,6.7,0.3
		c1.2,0.9,1.2,2.3,1.2,3L60.8,74.9L60.8,74.9z"/>
</g>
</svg>
