<?xml version="1.0" encoding="utf-8"?>
<!-- Generator: Adobe Illustrator 23.0.6, SVG Export Plug-In . SVG Version: 6.00 Build 0)  -->
<svg version="1.1" id="Layer_1" xmlns="http://www.w3.org/2000/svg" xmlns:xlink="http://www.w3.org/1999/xlink" x="0px" y="0px"
	 viewBox="0 0 130 100" style="enable-background:new 0 0 130 100;" xml:space="preserve">
<style type="text/css">
	.st0{fill:#252F3E;}
	.st1{fill:#FF9900;}
	.st2{fill-rule:evenodd;clip-rule:evenodd;fill:#0089D6;}
	.st3{fill:#0089D6;}
	.st4{fill:#EA4335;}
	.st5{fill:#4285F4;}
	.st6{fill:#34A853;}
	.st7{fill:#FBBC05;}
	.st8{fill:#5F6368;}
	.st9{fill:#373C41;}
	.st10{fill:#696566;}
</style>
<g>
	<g>
		<path class="st4" d="M70.6,29.5h0.1H70.6l5-5l0-0.1c-4.2-3.7-10-5-15.3-3.4c-5.3,1.6-9.5,5.8-10.9,11.2c0.1,0,0.2-0.1,0.3-0.1
			c1.8-1.2,4-1.9,6.3-1.9c0.8,0,1.5,0.1,2.3,0.2c0,0,0.1,0,0.1,0C61.5,26.9,66.9,26.5,70.6,29.5L70.6,29.5L70.6,29.5z"/>
		<path class="st5" d="M80.5,32.2c-0.8-3-2.5-5.8-4.9-7.9l-5,5c2.1,1.7,3.3,4.4,3.3,7.1v0.9c6,0,6,9,0,9h-9l0,0v7.1h0l0.1,0.1h9
			c5.1,0,9.7-3.3,11.2-8.2C86.6,40.4,84.8,35.1,80.5,32.2L80.5,32.2z"/>
		<path class="st6" d="M56,53.5h9v-7.2h-9c-0.6,0-1.3-0.1-1.8-0.4l-5.2,5.2l0,0.1C50.9,52.7,53.4,53.5,56,53.5L56,53.5z"/>
		<path class="st7" d="M56,30.2c-5,0-9.4,3.2-11,7.9c-1.6,4.7,0,9.9,3.9,13l5.2-5.2c-2.9-1.3-3.5-5-1.3-7.3c2.2-2.2,6-1.5,7.3,1.3
			l5.2-5.2C63,31.9,59.6,30.2,56,30.2L56,30.2z"/>
	</g>
	<g>
		<path class="st8" d="M13.4,74.9c-2.2,0-4.3-0.8-5.9-2.4C5.9,71,5,68.9,5,66.7c0-2.2,0.9-4.3,2.5-5.8c1.5-1.6,3.7-2.5,5.9-2.5
			c2.1,0,4.1,0.8,5.6,2.3l-1.6,1.6c-1.1-1.1-2.5-1.6-4.1-1.6c-1.6,0-3.1,0.6-4.2,1.8c-1.1,1.1-1.7,2.6-1.7,4.2
			c0,1.6,0.6,3.1,1.7,4.2c2.3,2.3,6,2.3,8.4,0.1c0.7-0.8,1.1-1.7,1.2-2.8h-5.4v-2.3H21c0.1,0.5,0.1,0.9,0.1,1.4
			c0.1,1.9-0.6,3.9-2,5.3C17.6,74.1,15.5,75,13.4,74.9L13.4,74.9z M31,73.4c-2.1,2-5.4,2-7.6,0c-1-1-1.6-2.4-1.5-3.8
			c0-1.4,0.5-2.8,1.5-3.8c2.1-2,5.4-2,7.6,0c1,1,1.6,2.4,1.5,3.8C32.6,71,32,72.4,31,73.4L31,73.4L31,73.4z M25.1,71.9
			c1.1,1.2,3.1,1.2,4.2,0c0.6-0.6,0.9-1.4,0.9-2.3c0-0.9-0.3-1.7-0.9-2.3c-1.2-1.2-3.1-1.2-4.2,0c-0.6,0.6-0.9,1.5-0.9,2.3
			C24.2,70.4,24.5,71.3,25.1,71.9L25.1,71.9L25.1,71.9z M42.6,73.4c-2.1,2-5.4,2-7.6,0c-1-1-1.6-2.4-1.5-3.8c0-1.4,0.5-2.8,1.5-3.8
			c2.1-2,5.4-2,7.6,0c1,1,1.6,2.4,1.5,3.8C44.2,71,43.6,72.4,42.6,73.4L42.6,73.4z M36.7,71.9c1.1,1.2,3.1,1.2,4.2,0
			c0.6-0.6,0.9-1.4,0.9-2.3c0-0.9-0.3-1.7-0.9-2.3c-1.2-1.2-3.1-1.2-4.2,0c-0.6,0.6-0.9,1.5-0.9,2.3C35.8,70.4,36.1,71.3,36.7,71.9
			L36.7,71.9L36.7,71.9z M50.2,79.7c-1.1,0-2.1-0.3-3-0.9c-0.8-0.6-1.4-1.3-1.7-2.2l2-0.8c0.2,0.5,0.6,1,1,1.3
			c0.5,0.4,1.1,0.6,1.7,0.6c0.8,0,1.5-0.2,2.1-0.8c0.5-0.6,0.8-1.5,0.7-2.3v-0.8H53c-0.7,0.8-1.7,1.3-2.8,1.2
			c-1.4,0-2.6-0.6-3.6-1.6c-1-1-1.6-2.3-1.5-3.7c0-1.4,0.5-2.8,1.5-3.8c0.9-1,2.2-1.6,3.6-1.6c0.6,0,1.1,0.1,1.6,0.4
			c0.4,0.2,0.8,0.5,1.2,0.8h0.1v-0.8h2.2v9.5c0.1,1.5-0.4,3-1.4,4.2C52.9,79.2,51.6,79.7,50.2,79.7L50.2,79.7z M50.4,72.8
			c0.8,0,1.5-0.3,2-0.9c0.5-0.6,0.8-1.4,0.8-2.3c0-0.9-0.3-1.7-0.8-2.3c-0.5-0.6-1.2-0.9-2-0.9c-0.8,0-1.6,0.3-2.1,0.9
			c-0.6,0.6-0.9,1.5-0.9,2.3c0,0.9,0.3,1.7,0.9,2.3C48.8,72.5,49.6,72.8,50.4,72.8L50.4,72.8z M59.2,74.6h-2.3V59h2.3V74.6
			L59.2,74.6z M65.6,74.9c-1.4,0-2.8-0.5-3.8-1.5c-1-1-1.5-2.4-1.5-3.8c-0.1-1.4,0.5-2.8,1.5-3.8c0.9-1,2.2-1.5,3.6-1.5
			c0.6,0,1.2,0.1,1.8,0.3c0.5,0.2,1,0.5,1.4,0.9c0.3,0.3,0.6,0.7,0.9,1.1c0.2,0.3,0.4,0.7,0.5,1l0.2,0.6L63,71.2
			c0.4,1,1.5,1.7,2.6,1.6c1.1,0,2.1-0.6,2.6-1.5l1.8,1.2c-0.5,0.7-1,1.2-1.7,1.6C67.5,74.7,66.5,74.9,65.6,74.9L65.6,74.9z
			 M62.6,69.4l4.7-2c-0.1-0.3-0.4-0.6-0.7-0.8c-0.4-0.2-0.8-0.3-1.2-0.3c-0.7,0-1.4,0.3-1.9,0.8C62.9,67.8,62.6,68.6,62.6,69.4
			L62.6,69.4z"/>
		<path class="st8" d="M82.4,74.9c-2,0-3.9-0.7-5.3-2.2c-1.4-1.4-2.2-3.4-2.1-5.4c0-2,0.7-3.9,2.1-5.4c1.4-1.4,3.3-2.2,5.3-2.2
			c2-0.1,4,0.8,5.3,2.4l-1.3,1.2c-1-1.2-2.4-1.9-4-1.8c-1.5,0-2.9,0.5-4,1.6c-1.1,1.1-1.7,2.6-1.6,4.2c-0.1,1.6,0.5,3.1,1.6,4.2
			c1.1,1,2.5,1.6,4,1.6c1.7,0,3.4-0.7,4.5-2.1l1.3,1.3c-0.7,0.8-1.5,1.5-2.5,1.9C84.6,74.7,83.5,74.9,82.4,74.9L82.4,74.9z"/>
		<polygon class="st8" points="89.7,74.6 91.6,74.6 91.6,60.2 89.7,60.2 89.7,74.6 		"/>
		<path class="st8" d="M94.6,65.9c2-2,5.3-2,7.3,0c1,1,1.5,2.4,1.4,3.7c0,1.4-0.5,2.7-1.4,3.7c-2,2-5.3,2-7.3,0
			c-1-1-1.5-2.4-1.4-3.7C93.1,68.3,93.6,66.9,94.6,65.9L94.6,65.9z M96,72.2c1.2,1.3,3.3,1.3,4.5,0c0.7-0.7,1-1.6,1-2.6
			c0-1-0.3-1.9-1-2.6c-1.2-1.3-3.3-1.3-4.5,0c-0.7,0.7-1,1.6-1,2.6C95,70.6,95.3,71.5,96,72.2L96,72.2L96,72.2z"/>
		<path class="st8" d="M113.5,74.6h-1.8v-1.4h-0.1c-0.3,0.5-0.8,0.9-1.3,1.2c-0.6,0.3-1.2,0.5-1.8,0.5c-1.1,0.1-2.1-0.3-2.8-1.1
			c-0.7-0.9-1-1.9-1-3v-6.1h1.8v5.7c0,1.8,0.8,2.8,2.4,2.8c0.7,0,1.4-0.3,1.9-0.9c0.5-0.6,0.7-1.4,0.7-2.1v-5.5h1.8V74.6L113.5,74.6
			z"/>
		<path class="st8" d="M119.8,74.9c-1.3,0-2.5-0.5-3.3-1.5c-0.9-1-1.4-2.4-1.4-3.7c0-1.4,0.5-2.7,1.4-3.7c0.8-1,2-1.5,3.3-1.5
			c0.7,0,1.4,0.2,2,0.5c0.5,0.3,1,0.7,1.3,1.2h0.1l-0.1-1.4v-4.6h1.8v14.4h-1.8v-1.4h-0.1c-0.3,0.5-0.8,0.9-1.3,1.2
			C121.2,74.7,120.5,74.9,119.8,74.9L119.8,74.9z M120.1,73.2c0.8,0,1.6-0.3,2.2-1c0.6-0.7,0.9-1.6,0.9-2.6c0.1-0.9-0.3-1.9-0.9-2.6
			c-1.2-1.3-3.3-1.3-4.5,0c-0.6,0.7-1,1.6-0.9,2.6c-0.1,0.9,0.3,1.9,0.9,2.6C118.4,72.9,119.2,73.2,120.1,73.2L120.1,73.2z"/>
	</g>
</g>
</svg>
