<?xml version="1.0" encoding="utf-8"?>
<!-- Generator: Adobe Illustrator 23.0.6, SVG Export Plug-In . SVG Version: 6.00 Build 0)  -->
<svg version="1.1" id="Layer_1" xmlns="http://www.w3.org/2000/svg" xmlns:xlink="http://www.w3.org/1999/xlink" x="0px" y="0px"
	 viewBox="0 0 130 100" style="enable-background:new 0 0 130 100;" xml:space="preserve">
<style type="text/css">
	.st0{fill:#252F3E;}
	.st1{fill:#FF9900;}
	.st2{fill-rule:evenodd;clip-rule:evenodd;fill:#0089D6;}
	.st3{fill:#0089D6;}
	.st4{fill:#EA4335;}
	.st5{fill:#4285F4;}
	.st6{fill:#34A853;}
	.st7{fill:#FBBC05;}
	.st8{fill:#5F6368;}
	.st9{fill:#373C41;}
	.st10{fill:#696566;}
</style>
<g id="g166">
	<g id="g172" transform="translate(388.349, 250.856)">
		<path id="path174" class="st10" d="M-332.2-192.7l-5.5-15.3c-0.1-0.2-0.2-0.5-0.2-0.7c0-0.7,0.6-1.3,1.4-1.3
			c0.7,0,1.2,0.5,1.4,1.1l4.6,13.2l4.6-13.2c0.2-0.6,0.6-1.1,1.3-1.1h0.1c0.7,0,1.2,0.5,1.4,1.1l4.6,13.2l4.6-13.3
			c0.2-0.6,0.6-1.1,1.3-1.1c0.8,0,1.3,0.6,1.3,1.3c0,0.2-0.1,0.5-0.2,0.7l-5.5,15.3c-0.3,0.8-0.8,1.2-1.5,1.2h-0.1
			c-0.7,0-1.2-0.4-1.5-1.2l-4.5-13l-4.6,13c-0.2,0.8-0.8,1.2-1.5,1.2h-0.1C-331.3-191.5-331.9-191.9-332.2-192.7"/>
	</g>
	<g id="g176" transform="translate(436.249, 269.985)">
		<path id="path178" class="st10" d="M-340-227.8c0-0.7,0.6-1.4,1.3-1.4c0.8,0,1.4,0.6,1.4,1.4v3.1c1.3-3,4.3-4.4,6.2-4.4
			c0.8,0,1.3,0.6,1.3,1.4c0,0.7-0.5,1.3-1.2,1.4c-3.5,0.4-6.4,3.1-6.4,8.3v6.2c0,0.7-0.6,1.4-1.3,1.4c-0.8,0-1.4-0.6-1.4-1.4
			L-340-227.8L-340-227.8z"/>
	</g>
	<g id="g180" transform="translate(458.898, 249.221)">
		<path id="path182" class="st10" d="M-343.7-189.7c-4.9,0-8.9-3.8-8.9-9.3v-0.1c0-5.2,3.6-9.3,8.5-9.3c5.3,0,8.3,4.3,8.3,9.1
			c0,0.7-0.6,1.3-1.2,1.3h-12.9c0.4,3.9,3.1,6.1,6.3,6.1c2.2,0,3.8-0.9,5.1-2.1c0.2-0.2,0.4-0.3,0.8-0.3c0.7,0,1.2,0.5,1.2,1.1
			c0,0.3-0.1,0.6-0.4,0.9C-338.7-190.8-340.7-189.7-343.7-189.7 M-338.4-200.1c-0.3-3.3-2.1-6.1-5.7-6.1c-3.1,0-5.4,2.6-5.8,6.1
			H-338.4z"/>
	</g>
	<g id="g184" transform="translate(413.36, 255.941)">
		<path id="path186" class="st10" d="M-336.3-202L-336.3-202c0-3.9,3.1-5.9,7.7-5.9c2.3,0,4,0.3,5.6,0.8v-0.6c0-3.3-2-4.9-5.4-4.9
			c-1.8,0-2.9,0.2-4.2,0.8c-0.2,0.1-0.3,0.1-0.5,0.1c-0.6,0-1.2-0.5-1.2-1.2c0-0.6,0.2-0.9,0.7-1.1c1.8-0.8,3.1-1,5.4-1
			c2.6,0,4.5,0.7,5.8,2c1.2,1.2,1.9,3,1.9,5.3v10c0,0.8-0.6,1.3-1.3,1.3c-0.8,0-1.3-0.6-1.3-1.3v-1.7c-1.3,1.6-3.4,3.1-6.5,3.1
			C-332.9-196.4-336.3-198.3-336.3-202 M-322.9-203.4v-1.7c-1.3-0.4-3.1-0.8-5.3-0.8c-3.4,0-5.3,1.5-5.3,3.7v0.1
			c0,2.3,2.1,3.6,4.5,3.6C-325.6-198.5-322.9-200.6-322.9-203.4"/>
	</g>
	<g id="g188" transform="translate(329.779, 270.223)">
		<path id="path190" class="st10" d="M-322.6-228.3c-0.6-1.3-2.1-1.9-3.4-1.3c-1.4,0.6-1.9,2.1-1.3,3.4l5.7,12.5c0.9,2,1.9,3,3.6,3
			c1.9,0,2.7-1.1,3.6-3c0,0,5-10.9,5.1-11s0.2-0.5,0.7-0.5c0.4,0,0.8,0.3,0.8,0.8v10.7c0,1.6,0.9,3,2.7,3c1.8,0,2.7-1.3,2.7-3v-8.7
			c0-1.7,1.2-2.8,2.8-2.8s2.7,1.1,2.7,2.8v8.7c0,1.6,0.9,3,2.7,3c1.8,0,2.7-1.3,2.7-3v-8.7c0-1.7,1.2-2.8,2.8-2.8
			c1.6,0,2.7,1.1,2.7,2.8v8.7c0,1.6,0.9,3,2.7,3c1.8,0,2.7-1.3,2.7-3v-9.9c0-3.6-2.9-6.2-6.5-6.2c-3.5,0-5.7,2.4-5.7,2.4
			c-1.2-1.5-2.8-2.4-5.5-2.4c-2.9,0-5.4,2.4-5.4,2.4c-1.2-1.5-3.2-2.4-4.8-2.4c-2.6,0-4.6,1.1-5.8,4l-3.7,8.6L-322.6-228.3z"/>
	</g>
	<g id="g192" transform="translate(468.609, 268.931)">
		<path id="path194" class="st10" d="M-345.3-225.9L-345.3-225.9c0-1.2,1-2.3,2.2-2.3c1.3,0,2.2,1,2.2,2.2l0,0c0,1.2-1,2.3-2.2,2.3
			C-344.3-223.7-345.3-224.7-345.3-225.9 M-341.2-225.9L-341.2-225.9c0-1-0.8-1.8-1.8-1.8s-1.8,0.8-1.8,1.8l0,0c0,1,0.8,1.8,1.8,1.8
			S-341.2-224.9-341.2-225.9"/>
	</g>
	<g id="g196" transform="translate(470.257, 270.007)">
		<path id="path198" class="st10" d="M-345.5-227.9c0-0.1,0.1-0.2,0.2-0.2h0.7c0.3,0,0.5,0.1,0.6,0.2s0.2,0.3,0.2,0.5l0,0
			c0,0.3-0.2,0.5-0.4,0.7l0.3,0.4c0,0.1,0.1,0.1,0.1,0.2s-0.1,0.2-0.2,0.2s-0.2-0.1-0.2-0.1l-0.5-0.6h-0.4v0.5
			c0,0.1-0.1,0.2-0.2,0.2s-0.2-0.1-0.2-0.2V-227.9L-345.5-227.9z M-344.6-227.1c0.2,0,0.4-0.1,0.4-0.3l0,0c0-0.2-0.1-0.3-0.4-0.3
			h-0.5v0.6L-344.6-227.1L-344.6-227.1z"/>
	</g>
</g>
</svg>
