<?xml version="1.0" encoding="utf-8"?>
<!-- Generator: Adobe Illustrator 23.0.6, SVG Export Plug-In . SVG Version: 6.00 Build 0)  -->
<svg version="1.1" id="Layer_1" xmlns="http://www.w3.org/2000/svg" xmlns:xlink="http://www.w3.org/1999/xlink" x="0px" y="0px"
	 viewBox="0 0 100 84" style="enable-background:new 0 0 100 84;" xml:space="preserve">
<style type="text/css">
	.st0{fill:url(#SVGID_1_);}
	.st1{fill:#424243;}
</style>
<g>
	<g>
		<linearGradient id="SVGID_1_" gradientUnits="userSpaceOnUse" x1="0.5063" y1="42" x2="73.178" y2="42">
			<stop  offset="0" style="stop-color:#33429A"/>
			<stop  offset="0.9951" style="stop-color:#14AFE5"/>
		</linearGradient>
		<path class="st0" d="M63.2,16.3L61,18.5c-5.5-4.5-12.3-7-19.4-7c-16.1,0-29.3,12.4-30.4,28.3H8.1C9.2,22.2,23.8,8.4,41.7,8.4
			C49.6,8.4,57.2,11.2,63.2,16.3z M41.7,19.6c7.2,0,13.9,3.5,18.2,9.3l2.2-2.2c-4.8-6.4-12.4-10.2-20.4-10.2
			c-14.1,0-25.5,11.5-25.5,25.5c0,14.1,11.5,25.5,25.5,25.5c8,0,15.6-3.8,20.4-10.2l-2.2-2.2c-4.2,5.8-11,9.3-18.2,9.3
			c-12.4,0-22.4-10.1-22.4-22.4C19.3,29.6,29.3,19.6,41.7,19.6z M65.8,18.7l-2.2,2.2c0.7,0.8,1.4,1.5,2,2.3l2.2-2.2
			C67.2,20.2,66.5,19.4,65.8,18.7z M8.1,44.1c1.1,17.7,15.7,31.5,33.5,31.5c7.9,0,15.5-2.8,21.6-7.9L61,65.5c-5.5,4.5-12.3,7-19.4,7
			c-16.1,0-29.3-12.4-30.4-28.3H8.1z M63.6,63.1l2.2,2.2c0.7-0.8,1.4-1.5,2-2.3l-2.2-2.2C65,61.6,64.3,62.4,63.6,63.1z M41.7,80
			c-21,0-38-17.1-38-38c0-21,17.1-38,38-38c11.4,0,22,5,29.3,13.8l2.2-2.2C65.3,6.2,53.9,0.8,41.7,0.8C19,0.8,0.5,19.3,0.5,42
			c0,22.7,18.5,41.2,41.2,41.2c12.2,0,23.6-5.4,31.5-14.7l-2.2-2.2C63.7,75,53,80,41.7,80z"/>
	</g>
	<g>
		<path class="st1" d="M92.9,22.7c-1.8,0-3.3-0.6-4.6-1.9c-1.3-1.3-1.9-2.8-1.9-4.6c0-1.8,0.6-3.3,1.9-4.6c1.3-1.2,2.8-1.9,4.6-1.9
			c1.8,0,3.4,0.6,4.7,1.9c1.3,1.2,1.9,2.8,1.9,4.6c0,1.8-0.6,3.3-1.9,4.6C96.3,22.1,94.7,22.7,92.9,22.7z M92.9,72.2
			c-1.8,0-3.3-0.6-4.6-1.9c-1.3-1.3-1.9-2.8-1.9-4.6c0-1.8,0.6-3.3,1.9-4.6c1.3-1.3,2.8-2,4.6-2c1.8,0,3.4,0.7,4.7,2
			c1.3,1.3,1.9,2.9,1.9,4.6c0,1.8-0.6,3.3-1.9,4.6C96.3,71.5,94.7,72.2,92.9,72.2z"/>
	</g>
</g>
</svg>
