<?xml version="1.0" encoding="utf-8"?>
<!-- Generator: Adobe Illustrator 23.0.6, SVG Export Plug-In . SVG Version: 6.00 Build 0)  -->
<svg version="1.1" id="Layer_1" xmlns="http://www.w3.org/2000/svg" xmlns:xlink="http://www.w3.org/1999/xlink" x="0px" y="0px"
	 viewBox="0 0 382 84" style="enable-background:new 0 0 382 84;" xml:space="preserve">
<style type="text/css">
	.st0{fill:url(#SVGID_1_);}
	.st1{fill:#424243;}
	.st2{fill:#565656;}
	.st3{fill:#3BCCE6;}
</style>
<g>
	<g>
		<path class="st2" d="M58,78.5c-5.7,3-12.7,4.5-21.1,4.5c-10.9,0-19.6-3.5-26.1-10.5c-6.6-7-9.8-16.2-9.8-27.5
			c0-12.2,3.7-22.1,11.1-29.6S28.8,4.1,40.1,4.1c7.3,0,13.3,1,18,3.1v9.5c-5.4-3.1-11.5-4.6-18.1-4.6c-8.8,0-15.9,2.9-21.3,8.8
			s-8.2,13.7-8.2,23.5c0,9.3,2.6,16.7,7.7,22.2c5.1,5.5,11.8,8.3,20.1,8.3c7.7,0,14.3-1.7,19.9-5.1L58,78.5L58,78.5z"/>
		<path class="st3" d="M126.7,81.7h-12.5L84.7,46.8c-1.1-1.3-1.8-2.2-2-2.7h-0.2v37.6h-9V5.4h9v35.9h0.2c0.5-0.8,1.2-1.6,2-2.6
			l28.6-33.3h11.1L91.7,42L126.7,81.7z"/>
		<path class="st2" d="M157,83c-8,0-14.5-2.6-19.3-7.7c-4.8-5.1-7.2-11.8-7.2-20.3c0-9.2,2.5-16.3,7.5-21.5c5-5.2,11.8-7.7,20.3-7.7
			c8.1,0,14.5,2.5,19,7.5c4.5,5,6.9,12,6.9,20.8c0,8.7-2.4,15.6-7.4,20.9C171.9,80.4,165.3,83,157,83z M157.7,33.2
			c-5.6,0-10,1.9-13.3,5.7c-3.3,3.8-4.9,9.1-4.9,15.8c0,6.5,1.6,11.6,4.9,15.3c3.3,3.7,7.7,5.6,13.3,5.6c5.7,0,10-1.8,13-5.5
			c3.1-3.7,4.5-8.8,4.5-15.6c0-6.8-1.5-12.1-4.5-15.8C167.7,35.1,163.3,33.2,157.7,33.2z"/>
		<path class="st3" d="M206.9,81.7h-8.7V1h8.7V81.7z"/>
		<path class="st2" d="M247.4,83c-8,0-14.5-2.6-19.3-7.7c-4.8-5.1-7.2-11.8-7.2-20.3c0-9.2,2.5-16.3,7.5-21.5
			c5-5.2,11.8-7.7,20.3-7.7c8.1,0,14.5,2.5,19,7.5c4.5,5,6.9,12,6.9,20.8c0,8.7-2.4,15.6-7.4,20.9C262.2,80.4,255.6,83,247.4,83z
			 M248,33.2c-5.6,0-10,1.9-13.3,5.7c-3.3,3.8-4.9,9.1-4.9,15.8c0,6.5,1.6,11.6,4.9,15.3s7.7,5.6,13.3,5.6c5.7,0,10-1.8,13-5.5
			c3.1-3.7,4.5-8.8,4.5-15.6c0-6.8-1.5-12.1-4.5-15.8C258,35.1,253.6,33.2,248,33.2z"/>
		<path class="st3" d="M333.7,81.7H325V50.6c0-11.6-4.3-17.3-12.7-17.3c-4.4,0-8,1.6-10.8,4.9c-2.8,3.3-4.3,7.4-4.3,12.4v31.1h-8.7
			V27.2h8.7v9.1h0.2c4.1-6.9,10.1-10.3,17.9-10.3c6,0,10.5,1.9,13.7,5.8c3.2,3.9,4.8,9.4,4.8,16.7L333.7,81.7L333.7,81.7z"/>
	</g>
	<g>
		<path class="st2" d="M350.8,4.1h-7.4V27h-3V4.1H333V1.4h17.7V4.1z"/>
		<path class="st2" d="M380.9,27h-3V9.8c0-1.4,0.1-3,0.2-5H378c-0.3,1.1-0.6,2-0.8,2.5L368.6,27h-1.5l-8.7-19.5
			c-0.2-0.6-0.5-1.4-0.8-2.6l0,0c0.1,1,0.2,2.7,0.2,5V27h-2.9V1.5h4l7.8,17.8c0.6,1.4,1,2.4,1.2,3.1h0.1c0.5-1.4,0.9-2.4,1.2-3.1
			l8-17.7h3.7L380.9,27L380.9,27z"/>
	</g>
</g>
</svg>
