<svg height="457pt" viewBox="0 -15 457.98 457" width="457pt" xmlns="http://www.w3.org/2000/svg"><path d="m457.980469 426.691406v.597656h-457.980469v-.597656h.320312l157.417969-148.203125.480469-.519531 70.769531 66.121094 73.351563-68.539063.410156.4375 154.871094 150.703125zm0 0" fill="#f4b844"/><path d="m457.980469 130.101562v296.589844h-.359375l-154.871094-150.703125-.410156-.4375zm0 0" fill="#fedb41"/><path d="m457.980469 129.691406v.410156l-155.640625 145.449219-73.351563 68.539063-70.769531-66.121094-158.21875-147.828125v-.449219h101.03125c.679688 70.183594 57.769531 126.726563 127.957031 126.726563 70.191407 0 127.28125-56.542969 127.960938-126.726563zm0 0" fill="#00acea"/><path d="m356.960938 128.460938c0 .410156 0 .820312-.011719 1.230468-.679688 70.183594-57.769531 126.726563-127.960938 126.726563-70.1875 0-127.277343-56.542969-127.957031-126.726563-.011719-.410156-.011719-.820312-.011719-1.230468 0-70.675782 57.292969-127.972657 127.96875-127.972657s127.972657 57.296875 127.972657 127.972657zm-105.972657 66.328124c0-6.074218-4.921875-11-11-11-6.074219 0-11 4.925782-11 11 0 6.074219 4.925781 11 11 11 6.078125 0 11-4.925781 11-11zm0 0" fill="#00efd1"/><path d="m250.988281 194.789062c0 6.074219-4.921875 11-11 11-6.074219 0-11-4.925781-11-11 0-6.074218 4.925781-11 11-11 6.078125 0 11 4.925782 11 11zm0 0" fill="#00acea"/><g fill="#fedb41"><path d="m0 130.140625 158.21875 147.828125-.480469.519531-157.417969 148.203125h-.320312zm0 0"/><path d="m292.5 118.820312h-14v-14.390624c-.039062-12.246094-5.144531-23.929688-14.101562-32.28125-9.300782-8.789063-21.613282-13.683594-34.410157-13.679688-26.671875 0-48.414062 20.621094-48.414062 45.960938v14.390624h-14v-14.390624c0-33.0625 28.019531-59.960938 62.460937-59.960938 16.375.007812 32.125 6.285156 44.019532 17.542969 11.742187 10.984375 18.417968 26.335937 18.445312 42.417969zm0 0"/><path d="m270.988281 202.109375h-20c-3.863281 0-7-3.132813-7-7s3.136719-7 7-7h20c2.761719-.003906 5-2.238281 5-5v-15c0-3.867187 3.136719-7 7-7 3.867188 0 7 3.132813 7 7v15c-.011719 10.488281-8.507812 18.988281-19 19zm0 0"/></g><path d="m239.988281 212.789062c-9.9375 0-18-8.058593-18-18 0-9.941406 8.0625-18 18-18 9.941407 0 18 8.058594 18 18-.011719 9.9375-8.0625 17.988282-18 18zm0-22c-2.207031 0-4 1.792969-4 4 0 2.210938 1.792969 4 4 4 2.210938 0 4-1.789062 4-4 0-2.207031-1.789062-4-4-4zm0 0" fill="#00acea"/><path d="m298.101562 118.820312v48.960938h-27.390624v-48.960938zm0 0" fill="#00acea"/><path d="m189.371094 118.820312v48.960938h-29.492188v-48.960938zm0 0" fill="#00acea"/></svg>