<svg id="Flat" height="512" viewBox="0 0 64 64" width="512" xmlns="http://www.w3.org/2000/svg"><path d="m7 13h25v38h-25z" fill="#f2f2f2"/><path d="m32 13h25v38h-25z" fill="#f2f2f2"/><path d="m37 46h17v2h-17z" fill="#29485a"/><path d="m44 42h10v2h-10z" fill="#29485a"/><path d="m7 15h-4v40h25.343a4 4 0 0 0 2.829-1.172l.828-.828.828.828a4 4 0 0 0 2.829 1.172h25.343v-40h-4v36h-50z" fill="#00807c"/><path d="m52 12v29.143a31.382 31.382 0 0 0 -19.191 9.048l-.809.809v-38l.809-.809a31.381 31.381 0 0 1 19.191-9.048z" fill="#d6d7d8"/><path d="m49.979 36.418a30.476 30.476 0 0 0 -15.965 7.993v-2.689a32.482 32.482 0 0 1 15.986-7.333" fill="#29485a"/><path d="m35.242 29.209a31.39 31.39 0 0 1 12.758-6.209v-14.21a31.379 31.379 0 0 0 -12.758 6.21z" fill="#0378a3"/><g fill="#29485a"><path d="m10 16h19v2h-19z"/><path d="m10 20h10v2h-10z"/><path d="m10 24h10v2h-10z"/><path d="m10 28h19v2h-19z"/><path d="m10 32h19v2h-19z"/></g><path d="m22 21h6v4h-6z" fill="#0378a3"/><path d="m20 36h9v2h-9z" fill="#29485a"/><path d="m20 40h6v2h-6z" fill="#29485a"/><path d="m10 46h19v2h-19z" fill="#29485a"/><path d="m11 37h6v6h-6z" fill="#0378a3"/><path d="m50 30.415a30.46 30.46 0 0 0 -15.985 8l-.015-2.693a32.344 32.344 0 0 1 16-7.334" fill="#29485a"/></svg>