<svg id="Capa_1" enable-background="new 0 0 512 512" height="512" viewBox="0 0 512 512" width="512" xmlns="http://www.w3.org/2000/svg"><path d="m90 226h-30c0-60.088 27.085-116.928 74.312-154.179l18.574 23.555c-39.961 31.523-62.886 79.779-62.886 130.624z" fill="#e1ebf0"/><path d="m452 226h-30c0-50.845-22.925-99.101-62.886-130.624l18.574-23.555c47.227 37.251 74.312 94.091 74.312 154.179z" fill="#b4d2d7"/><path d="m347 482h-30v-30h30c41.353 0 75-33.647 75-75h30c0 57.891-47.109 105-105 105z" fill="#b4d2d7"/><path d="m399.2 50.7c-39.901-32.701-91.301-50.7-143.2-50.7s-103.299 17.999-143.2 50.7l-12.599 10.499 63.3 63.6 10.499-7.798c23.401-17.701 53.2-26.4 82-26.4s58.599 8.699 82 26.4l10.499 7.798 63.3-63.6z" fill="#ff7037"/><path d="m256 422c-24.901 0-45 20.099-45 45s20.099 45 45 45h76v-90z" fill="#ff7037"/><path d="m467 392h-75v-181h75c24.853 0 45 20.147 45 45v91c0 24.853-20.147 45-45 45z" fill="#53433f"/><path d="m120 392h-75c-24.853 0-45-20.147-45-45v-91c0-24.853 20.147-45 45-45h75z" fill="#725d57"/><g fill="#f03800"><path d="m256 422h76v90h-76z"/><path d="m411.799 61.199-63.3 63.6-10.499-7.798c-23.401-17.701-53.2-26.4-82-26.4v-90.601c51.899 0 103.299 17.999 143.2 50.7z"/></g></svg>